<svg width="51" height="50" fill="none" xmlns="http://www.w3.org/2000/svg"><path fill-rule="evenodd" clip-rule="evenodd" d="M51 0H4.63635v2.87354H2.31824v2.87353H0V50h45.2046v-2.2988h2.8977v-2.2989H51V0zm-2.8977 44.2529h1.7386V1.14941H5.79541v1.72413H48.1023V44.2529zm-1.1591 2.2987h-1.7386V5.74707H3.47729V4.02295H46.9432V46.5516zM44.0454 6.89648H1.15906V48.8505H44.0454V6.89648z" fill="#1C1C1C"/><path d="M35.7394 34.101c-.6328-.2092-.8739-.5678-.9041-1.3448-.0301-2.7196-.0301-5.3793 0-7.9494.0302-2.4805-1.7177-4.1242-4.2492-4.1242-1.8383 0-3.2849.8966-4.3698 1.554l-.7835.4782c-.663-1.2851-2.0191-2.0322-3.7671-2.0322-1.8383 0-3.2547.8966-4.3697 1.554l-.4521.269-.3315-1.823h-.7232c-2.0192.3885-3.7671.6874-5.5753.9862v.8368l.5123.1494c.6329.1495.9945.538.9945 1.2851.0603 2.8988.0603 5.977 0 8.8161 0 .777-.241 1.1057-.904 1.3448l-.3014.1195v.8368h7.7752v-.8368l-.4219-.1195c-.6329-.1793-.874-.5379-.874-1.3149-.0603-2.9587-.0301-6.0966 0-9.1449.5726-.3287 1.1753-.5977 1.7781-.5977 1.2657 0 1.8684.8368 1.8985 2.3908.0302 2.3311.0603 4.8115 0 7.3219 0 .777-.2712 1.1655-.8739 1.3448l-.4219.1195v.8368h7.8354v-.8368l-.4219-.1195c-.6027-.1793-.8438-.5678-.8739-1.3448-.0302-2.7196-.0302-5.3793 0-7.9494 0-.3885-.0302-.7472-.1206-1.0759.6028-.3885 1.2658-.6874 1.8986-.6874 1.2657 0 1.8685.8368 1.8986 2.3908.0301 2.3311.0301 4.8115 0 7.3219 0 .777-.3014 1.1655-.9041 1.3448l-.4219.1195v.8368h7.8053v-.8368l-.3315-.1195z" fill="#1C1C1C"/></svg>