<svg width="24" height="24" fill="none" xmlns="http://www.w3.org/2000/svg"><path fill-rule="evenodd" clip-rule="evenodd" d="M10.5 24h-7C2.1 24 1 22.86 1 21.5V9.86c-.662-.473-1-1.201-1-1.941 0-.376.089-.75.289-1.129 1.065-1.898 2.153-3.783 3.265-5.654C4.016.399 4.765 0 5.599 0c.635 0 .972.204 1.445.479.662.386 9 5.352 12.512 7.441.087.052 3.366 1.988 3.449 2.045.663.49.995 1.197.995 1.934 0 .375-.092.745-.295 1.13-1.064 1.899-2.153 3.784-3.265 5.655-.577.92-1.615 1.29-2.496 1.088-.392.234-5.826 3.75-6.252 3.968-.413.212-.762.26-1.192.26zM3 13.237V21.5c0 .274.221.5.5.5h4.588C6.368 19.094 4.671 16.173 3 13.237zm1.606-1.238c.053.092 5.681 9.797 5.726 9.859.108.139.299.181.455.098.164-.092 5.081-3.251 5.081-3.251-.639-.377-8.144-4.851-11.262-6.706zm.659-9.829C4.352 3.626 2.066 7.695 2.03 7.78c-.07.171-.008.366.149.464.201.12 16.023 9.547 16.177 9.571.151.022.297-.045.377-.174.942-1.584 3.206-5.55 3.232-5.601.069-.172.007-.367-.15-.465-.201-.12-15.983-9.499-16.09-9.546-.18-.074-.365-.002-.46.141zm1.557 2.695c1.104 0 2 .897 2 2 0 1.104-.896 2-2 2s-2-.896-2-2c0-1.103.896-2 2-2z" fill="#1C1C1C"/></svg>